<svg xmlns="http://www.w3.org/2000/svg" width="16" height="16" viewBox="0 0 12.8676 11.9905"><title>Archive</title><path d="M2.61,4.7378V12.83a1.3478,1.3478,0,0,0,1.3439,1.3439h8.0926A1.3478,1.3478,0,0,0,13.39,12.83V4.7378Zm9.9719,7.34a1.3925,1.3925,0,0,1-1.3883,1.3884H4.8066a1.3925,1.3925,0,0,1-1.3883-1.3884V5.4455h9.1634Z" transform="translate(-1.5662 -2.1838)"/><path d="M5.4946,7.3405h5.0108a.7176.7176,0,1,0,0-1.4351H5.4946a.7176.7176,0,1,0,0,1.4351Z" transform="translate(-1.5662 -2.1838)"/><path d="M13.3149,2.1838H2.6851a1.1189,1.1189,0,0,0,0,2.2378h10.63a1.1189,1.1189,0,1,0,0-2.2378Zm-.7973,1.7027H3.4824c-.5231,0-.9511-.0607-.9511-.5838s.428-.6811.9511-.6811h9.0352c.5231,0,.9511.158.9511.6811S13.0407,3.8865,12.5176,3.8865Z" transform="translate(-1.5662 -2.1838)"/></svg>