<svg xmlns="http://www.w3.org/2000/svg" width="16" height="16" viewBox="0 0 16 16"><title>ArrowRightFill</title><path d="M8,0a8,8,0,1,0,8,8A8,8,0,0,0,8,0ZM8,14.4152A6.4152,6.4152,0,1,1,14.4151,8,6.4152,6.4152,0,0,1,8,14.4152Z" transform="translate(0 0)"/><path d="M1.4753,8A6.511,6.511,0,1,0,7.9862,1.489,6.5109,6.5109,0,0,0,1.4753,8Zm8.8336-3.2679,2.7446,2.7544a.6856.6856,0,0,1,.198.5l.0021.0126,0,.0012c0,.0139-.0072.0255-.008.0392a.5032.5032,0,0,1-.13.3522.6562.6562,0,0,1-.0623.0945L10.3089,11.24a.69.69,0,0,1-.977-.9735L10.9036,8.69H3.4082a.69.69,0,0,1,0-1.3791h7.5229L9.3319,5.7055a.69.69,0,1,1,.977-.9734Z" transform="translate(0 0)"/><polygon points="8.676 12.578 8.676 12.578 8.675 12.584 8.676 12.578"/><path d="M8.2826,13.1938c-.0105.0049-.0186.0151-.0293.02C8.2643,13.2086,8.2719,13.199,8.2826,13.1938Z" transform="translate(0 0)"/><path d="M7.9988,13.265l.0012,0a.6908.6908,0,0,0,.2533-.052A.6865.6865,0,0,1,7.9988,13.265Z" transform="translate(0 0)"/></svg>