<svg xmlns="http://www.w3.org/2000/svg" width="16" height="16" viewBox="0 0 16 16"><title>ArrowUpFill</title><path d="M8,0a8,8,0,1,0,8,8A8,8,0,0,0,8,0ZM8,14.4152A6.4152,6.4152,0,1,1,14.4151,8,6.4152,6.4152,0,0,1,8,14.4152Z" transform="translate(0 0)"/><path d="M7.9862,14.5109A6.511,6.511,0,1,1,14.4971,8,6.5109,6.5109,0,0,1,7.9862,14.5109Zm3.2679-8.8337L8.5,2.9327a.6852.6852,0,0,0-.5-.198l-.0126-.0021-.0012,0c-.0139,0-.0256.0072-.0392.008a.502.502,0,0,0-.3522.13A.6426.6426,0,0,0,7.5,2.9327L4.7459,5.6772a.69.69,0,1,0,.9735.977L7.2966,5.0826v7.4953a.69.69,0,0,0,1.3792,0V5.0551l1.6048,1.5991a.69.69,0,1,0,.9735-.977Z" transform="translate(0 0)"/><polygon points="8.676 12.578 8.676 12.578 8.675 12.584 8.676 12.578"/><path d="M8.2826,13.1938c-.0105.0049-.0186.0151-.0293.02C8.2643,13.2086,8.2719,13.199,8.2826,13.1938Z" transform="translate(0 0)"/><path d="M7.9988,13.265l.0012,0a.6908.6908,0,0,0,.2533-.052A.6865.6865,0,0,1,7.9988,13.265Z" transform="translate(0 0)"/></svg>