<svg xmlns="http://www.w3.org/2000/svg" width="16" height="16" viewBox="0 0 13.8746 13.8746"><title>ArrowLeft</title><path d="M8,1.0627A6.9373,6.9373,0,1,0,14.9373,8,6.9373,6.9373,0,0,0,8,1.0627Zm0,12.5A5.563,5.563,0,1,1,13.563,8,5.563,5.563,0,0,1,8,13.563Z" transform="translate(-1.0627 -1.0627)"/><rect x="4.9354" y="4.6984" width="1.3792" height="4.5046" rx="0.6896" transform="translate(3.1945 14.7245) rotate(-132.2183)"/><rect x="7.3104" y="3.7789" width="1.3792" height="8.4421" rx="0.6896" transform="translate(-1.0627 14.9373) rotate(-90)"/><rect x="4.9354" y="6.7969" width="1.3792" height="4.5046" rx="0.6896" transform="translate(15.0439 9.9014) rotate(132.2184)"/></svg>