<svg xmlns="http://www.w3.org/2000/svg" width="16" height="16" viewBox="0 0 13.8746 13.8746"><title>ArrowDown</title><path d="M8,1.0627A6.9373,6.9373,0,1,0,14.9373,8,6.9373,6.9373,0,0,0,8,1.0627Zm0,12.5A5.563,5.563,0,1,1,13.563,8,5.563,5.563,0,0,1,8,13.563Z" transform="translate(-1.0627 -1.0627)"/><rect x="6.2611" y="8.1226" width="1.3792" height="4.5046" rx="0.6896" transform="translate(18.0072 12.3252) rotate(137.7817)"/><rect x="7.3104" y="3.7789" width="1.3792" height="8.4421" rx="0.6896" transform="translate(14.9373 14.9373) rotate(180)"/><rect x="8.3596" y="8.1226" width="1.3792" height="4.5046" rx="0.6896" transform="translate(8.2563 -4.452) rotate(42.2183)"/></svg>