<svg xmlns="http://www.w3.org/2000/svg" width="16" height="16" viewBox="0 0 16 16"><title>ArrowLeftFill</title><path d="M8,0a8,8,0,1,0,8,8A8,8,0,0,0,8,0ZM8,14.4152A6.4152,6.4152,0,1,1,14.4151,8,6.4152,6.4152,0,0,1,8,14.4152Z" transform="translate(0 0)"/><path d="M14.4972,8a6.511,6.511,0,1,0-6.511,6.5109A6.511,6.511,0,0,0,14.4972,8ZM5.6635,11.2679,2.9189,8.5135a.6856.6856,0,0,1-.198-.5l-.0021-.0127,0-.0011c0-.0139.0072-.0256.008-.0393a.5026.5026,0,0,1,.13-.3521.6507.6507,0,0,1,.0623-.0945L5.6635,4.76a.69.69,0,0,1,.977.9734L5.0688,7.31h7.4954a.69.69,0,1,1,0,1.3791H5.0413l1.5992,1.6049a.69.69,0,0,1-.977.9735Z" transform="translate(0 0)"/><polygon points="8.676 12.578 8.676 12.578 8.675 12.584 8.676 12.578"/><path d="M8.2826,13.1938c-.0105.0049-.0186.0151-.0293.02C8.2643,13.2086,8.2719,13.199,8.2826,13.1938Z" transform="translate(0 0)"/><path d="M7.9988,13.265l.0012,0a.6908.6908,0,0,0,.2533-.052A.6865.6865,0,0,1,7.9988,13.265Z" transform="translate(0 0)"/></svg>