<svg xmlns="http://www.w3.org/2000/svg" width="13" height="16" viewBox="0 0 12.1889 14.5939"><title>BellFill</title><polygon points="12.189 12.757 0.011 12.757 0 12.101 12.178 12.101 12.189 12.757"/><path d="M12.7055,9.8946V5.7108H3.2838V9.8946a3.2094,3.2094,0,0,1-1.3783,2.627H14.0837A3.2093,3.2093,0,0,1,12.7055,9.8946Z" transform="translate(-1.9055 -0.4209)"/><path d="M5.47,1.198H6.708A4.0919,4.0919,0,0,1,10.8,5.29v0A2.0919,2.0919,0,0,1,8.708,7.3817H3.47A2.0919,2.0919,0,0,1,1.3782,5.29v0A4.0919,4.0919,0,0,1,5.47,1.198Z"/><circle cx="5.9628" cy="1.5385" r="1.5385"/><path d="M9.5385,13.4763a1.5385,1.5385,0,1,1-3.077,0" transform="translate(-1.9055 -0.4209)"/></svg>