<svg xmlns="http://www.w3.org/2000/svg" width="13" height="16" viewBox="0 0 12.189 14.5939"><title>Bell</title><path d="M8,15.0148a1.5385,1.5385,0,0,0,1.5385-1.5385H6.4615A1.5385,1.5385,0,0,0,8,15.0148Z" transform="translate(-1.9055 -0.4209)"/><path d="M14.0945,12.5215a3.2092,3.2092,0,0,1-1.3783-2.627V5.7108h-.0108c0-1.1506-.9413-4.0919-2.0918-4.0919H9.3661a1.5353,1.5353,0,0,0-2.9956,0H5.3757c-1.1506,0-2.0919,2.9413-2.0919,4.0919V9.8945a3.2092,3.2092,0,0,1-1.3783,2.627l.0108.6568H14.0945l-.0108-.6568Zm-5.5065.1471H2.2154a3.0488,3.0488,0,0,0,1.3093-2.4957V6.2993c-.0018-.0342-.01-.0665-.01-.101,0-1.093.8943-3.8873,1.9874-3.8873h4.976c1.0929,0,1.9872,2.7943,1.9872,3.8873h.01v3.9746a3.0488,3.0488,0,0,0,1.3093,2.4957Z" transform="translate(-1.9055 -0.4209)"/></svg>