<svg xmlns="http://www.w3.org/2000/svg" width="16" height="16" viewBox="0 0 13.8746 13.8746"><title>CheckCircleFill</title><path d="M8,1.0627A6.9373,6.9373,0,1,0,14.9373,8,6.9373,6.9373,0,0,0,8,1.0627Zm0,12.5A5.563,5.563,0,1,1,13.563,8,5.563,5.563,0,0,1,8,13.563Z" transform="translate(-1.0627 -1.0627)"/><path d="M8,1.9567A6.0433,6.0433,0,1,0,14.0432,8,6.0433,6.0433,0,0,0,8,1.9567ZM11.7815,5.592l-4.06,5.8445a.6348.6348,0,0,1-.0633.0606.65.65,0,0,1-.0506.0752.6916.6916,0,0,1-.9752-.0076L4.2933,9.1888a.69.69,0,0,1,.9828-.9677L7.035,10.0076l3.6138-5.2024a.69.69,0,1,1,1.1327.7868Z" transform="translate(-1.0627 -1.0627)"/></svg>