<svg xmlns="http://www.w3.org/2000/svg" width="16" height="16" viewBox="0 0 16 16"><title>ClockFill</title><path d="M8,0a8,8,0,1,0,8,8A8,8,0,0,0,8,0ZM8,14.4152A6.4152,6.4152,0,1,1,14.4151,8,6.4152,6.4152,0,0,1,8,14.4152Z" transform="translate(0 0)"/><path d="M8,1.3013A6.6987,6.6987,0,1,0,14.6986,8,6.6987,6.6987,0,0,0,8,1.3013Zm3.1065,10.6438a.6916.6916,0,0,1-.96-.1693L7.4344,7.9031a.6856.6856,0,0,1-.11-.5239A.6348.6348,0,0,1,7.31,7.31V2.995a.69.69,0,1,1,1.3792,0V7.2912l2.5862,3.6935A.6917.6917,0,0,1,11.1064,11.9451Z" transform="translate(0 0)"/></svg>