<svg xmlns="http://www.w3.org/2000/svg" width="16" height="16" viewBox="0 0 16 16"><title>CloseFill</title><path d="M8,0a8,8,0,1,0,8,8A8,8,0,0,0,8,0ZM8,14.4152A6.4152,6.4152,0,1,1,14.4151,8,6.4152,6.4152,0,0,1,8,14.4152Z" transform="translate(0 0)"/><path d="M8,1.4756A6.5244,6.5244,0,1,0,14.5243,8,6.5244,6.5244,0,0,0,8,1.4756ZM11.7247,10.75a.69.69,0,0,1-.9752.9752L8,8.9752l-2.75,2.75a.69.69,0,0,1-.9752-.9752L7.0248,8l-2.75-2.7494a.69.69,0,0,1,.9752-.9752L8,7.0247l2.7495-2.75a.69.69,0,0,1,.9752.9752L8.9752,8Z" transform="translate(0 0)"/></svg>