<svg xmlns="http://www.w3.org/2000/svg" width="16" height="15.6225" viewBox="0 0 16 15.6225"><title>CloudDownload</title><path d="M11.2559,11.77a.6917.6917,0,0,0-.9753-.0018L8.6758,13.3673V5.8444a.69.69,0,0,0-1.3792,0V13.34L5.7194,11.7681a.69.69,0,1,0-.9735.977L7.5,15.49a.6448.6448,0,0,0,.0966.0637.6768.6768,0,0,0,.1259.083.6867.6867,0,0,0,.2287.0465c.0121.0007.0224.0071.0347.0071l.001,0L8,15.6876a.6851.6851,0,0,0,.5-.1979l2.7544-2.7446A.6916.6916,0,0,0,11.2559,11.77Z" transform="translate(0 -0.0675)"/><path d="M13.949,5.8248a5.0732,5.0732,0,0,0,.0618-.6127A5.14,5.14,0,0,0,3.8542,4.0849c-.0975-.0077-.1911-.0282-.2907-.0282A3.4986,3.4986,0,0,0,0,7.4865a3.4736,3.4736,0,0,0,3.2505,3.3993,1.1217,1.1217,0,0,0,.1495.03h.973v-.3235H3.86a1.0111,1.0111,0,0,1-.1345-.0274A3.1262,3.1262,0,0,1,.8,7.5059,3.1487,3.1487,0,0,1,4.0072,4.4191c.09,0,.1738.0185.2616.0254A4.6263,4.6263,0,0,1,13.41,5.459a4.5581,4.5581,0,0,1-.0556.5514,2.309,2.309,0,0,1-.3062,4.5658c-.0281.0022-.0522.0165-.0809.0165H11.6216v.3235h1.8973c.0318,0,.0586-.0158.09-.0183a2.5656,2.5656,0,0,0,.34-5.0731Z" transform="translate(0 -0.0675)"/></svg>