<svg xmlns="http://www.w3.org/2000/svg" width="16" height="10.8487" viewBox="0 0 16 10.8487"><title>Cloud</title><path d="M13.949,8.7437a5.0732,5.0732,0,0,0,.0618-.6127A5.14,5.14,0,0,0,3.8542,7.0038c-.0975-.0076-.1911-.0282-.2907-.0282A3.4986,3.4986,0,0,0,0,10.4054a3.4735,3.4735,0,0,0,3.2505,3.3993,1.1217,1.1217,0,0,0,.1495.03H13.5189c.0318,0,.0586-.0158.09-.0182a2.5656,2.5656,0,0,0,.34-5.0732Zm-.9011,4.7515c-.0281.0022-.0522.0164-.0809.0164H3.86a1.027,1.027,0,0,1-.1345-.0273A3.1263,3.1263,0,0,1,.8,10.4249,3.1487,3.1487,0,0,1,4.0072,7.3381c.09,0,.1738.0184.2616.0254A4.6263,4.6263,0,0,1,13.41,8.3779a4.5581,4.5581,0,0,1-.0556.5514,2.3091,2.3091,0,0,1-.3062,4.5659Z" transform="translate(0 -2.9865)"/></svg>