<svg xmlns="http://www.w3.org/2000/svg" width="16.0879" height="9.4686" viewBox="0 0 16.0879 9.4686"><title>Code</title><path d="M15.8685,7.6715l-4.273-4.273a.4551.4551,0,0,0-.6437.6436L14.91,8l-3.9579,3.9579a.4551.4551,0,0,0,.6437.6436l4.273-4.2729a.4765.4765,0,0,0,0-.6571Z" transform="translate(0.0879 -3.2657)"/><path d="M.0437,7.6715l4.273-4.273a.4551.4551,0,1,1,.6436.6436L1.0024,8,4.96,11.9579a.4551.4551,0,1,1-.6436.6436L.0437,8.3286a.4762.4762,0,0,1,0-.6571Z" transform="translate(0.0879 -3.2657)"/></svg>