<svg xmlns="http://www.w3.org/2000/svg" width="16" height="11.9865" viewBox="0 0 16 11.9865"><title>Display</title><path d="M15.3659,0H.6341A.6359.6359,0,0,0,0,.6341V8.7324a.636.636,0,0,0,.6341.6341H15.3659A.636.636,0,0,0,16,8.7324V.6341A.6359.6359,0,0,0,15.3659,0Zm.1476,8.264c0,.3488-.5988.6341-.9476.6341H1.4341c-.3488,0-1.0017-.2853-1.0017-.6341V1.1024c0-.3487.6529-.6341,1.0017-.6341H14.5659c.3488,0,.9476.2854.9476.6341Z"/><path d="M9.53,11.5365H6.4162V9.2135H9.53Z"/><rect x="3.6311" y="10.673" width="8.6838" height="1.3135" rx="0.6568"/></svg>