<svg xmlns="http://www.w3.org/2000/svg" width="13.1595" height="12.1324" viewBox="0 0 13.1595 12.1324"><title>Download</title><rect x="5.8902" width="1.3792" height="10.5351" rx="0.6896"/><rect x="5.934" y="7.7741" width="1.3792" height="5.2676" rx="0.6896" transform="translate(-6.8445 5.8198) rotate(-45.1024)"/><rect x="8.7144" y="7.7741" width="1.3792" height="5.2676" rx="0.6896" transform="translate(7.2488 22.4819) rotate(-134.8976)"/><path d="M13.9218,7.9243v4.3784a1.1527,1.1527,0,0,1-1.1494,1.1493H3.2276a1.1526,1.1526,0,0,1-1.1493-1.1493V7.9243H1.42v4.8649a1.2808,1.2808,0,0,0,1.277,1.277H13.3027a1.2807,1.2807,0,0,0,1.277-1.277V7.9243Z" transform="translate(-1.4203 -1.9338)"/></svg>