<svg xmlns="http://www.w3.org/2000/svg" width="13.5147" height="18" viewBox="0 0 13.5147 18"><title>Exit</title><rect x="2.9904" y="3.5605" width="1.0344" height="7.9014" rx="0.5172" transform="translate(-3.5605 12.0187) rotate(-89.9999)"/><rect x="5.3953" y="6.5681" width="1.0344" height="3.9507" rx="0.5172" transform="translate(4.5135 19.7687) rotate(-135.1026)"/><rect x="5.3953" y="4.4829" width="1.0344" height="3.9507" rx="0.5172" transform="translate(15.1022 7.8598) rotate(135.1023)"/><polygon points="13.515 16.524 8.586 18 8.586 0 13.515 1.476 13.515 16.524"/><polygon points="3.372 1 3.372 6.297 3.625 6.297 3.625 1.4 13.261 1.4 13.261 16.6 3.625 16.6 3.625 10.724 3.372 10.724 3.372 17 13.515 17 13.515 1 3.372 1"/></svg>