<svg xmlns="http://www.w3.org/2000/svg" width="16" height="9.76" viewBox="0 0 16 9.76"><title>Gmail</title><path d="M1.54,3.42v9.76A1.5407,1.5407,0,0,1,0,11.64V4.96A1.5471,1.5471,0,0,1,1.54,3.42Z" transform="translate(0 -3.42)"/><path d="M16,4.96v6.68a1.5407,1.5407,0,0,1-1.54,1.54V3.42A1.5471,1.5471,0,0,1,16,4.96Z" transform="translate(0 -3.42)"/><polygon points="14.46 0 14.46 2.55 8 7.12 1.54 2.55 1.54 0 3.58 1.54 8 4.88 12.42 1.54 14.46 0"/><polygon points="14.46 2.55 14.46 9.76 1.54 9.76 1.54 2.55 8 7.12 14.46 2.55" fill="none"/><polygon points="14.46 0 12.42 1.54 8 4.88 3.58 1.54 1.54 0 14.46 0" fill="none"/><rect x="1.54" width="12.92" height="0.3449"/><rect x="1.54" y="9.4151" width="12.92" height="0.3449"/></svg>