<svg xmlns="http://www.w3.org/2000/svg" width="15.8705" height="15.9515" viewBox="0 0 15.8705 15.9515"><title>History</title><rect x="7.3104" y="2.2569" width="1.3792" height="5.6946" rx="0.6896"/><rect x="8.6655" y="6.3905" width="1.3792" height="6.1068" rx="0.6896" transform="translate(-3.725 7.0252) rotate(-34.9999)"/><path d="M15.0054,9.4439c-.2531,0-.5026-.0148-.75-.0378A6.4129,6.4129,0,1,1,7.0166,1.6678c-.0021-.0751-.0113-.1483-.0113-.224A8.0191,8.0191,0,0,1,7.1347.0485a7.9989,7.9989,0,1,0,8.7358,9.3469A8.0767,8.0767,0,0,1,15.0054,9.4439Z" transform="translate(0 -0.0485)"/><circle cx="14.9541" cy="6.6487" r="0.7784"/><circle cx="14.1757" cy="4.7136" r="0.7784"/><circle cx="7.9112" cy="0.7784" r="0.7784"/><circle cx="9.6605" cy="1.0946" r="0.7784"/><circle cx="11.321" cy="1.873" r="0.7784"/><circle cx="12.8778" cy="3.1569" r="0.7784"/><circle cx="15.0922" cy="8.5838" r="0.7784"/></svg>