<svg xmlns="http://www.w3.org/2000/svg" width="16" height="17.1639" viewBox="0 0 16 17.1639"><title>IconatronNegative</title><rect x="6.1236" y="-1.7536" width="0.72" height="3.2014" rx="0.36" transform="translate(3.2519 6.626) rotate(-58.7613)" fill="#fff"/><rect x="6.5486" y="-0.0182" width="0.72" height="3.2014" rx="0.36" transform="translate(1.8224 -2.1974) rotate(31.2392)" fill="#fff"/><path d="M8.6394.0333Q8.65.6345,8.66,1.24A6.7981,6.7981,0,1,1,7.16,1.26Q7.1522.6543,7.1449.0534a8.0007,8.0007,0,1,0,1.4945-.02Z" transform="translate(0 1.156)" fill="#fff"/><path d="M8,3.4111a16.5867,16.5867,0,0,1-3.0606-.2849,14.8609,14.8609,0,0,1,.8289,4.68,14.87,14.87,0,0,1-.8289,5.1087h6.1212a15.9929,15.9929,0,0,1,0-9.7888A16.5867,16.5867,0,0,1,8,3.4111Z" transform="translate(0 1.156)" fill="#fff"/><rect x="4.9603" y="7.0075" width="6.0793" height="3.0796" fill="#b3b3b3"/><circle cx="8" cy="8.5473" r="1.2876" fill="#fff"/><circle cx="8" cy="8.5228" r="1.0079" fill="#ed1c24"/><rect x="4.2462" y="6.449" width="7.5076" height="0.5585" rx="0.2792" fill="#fff"/><rect x="4.2462" y="10.0382" width="7.5076" height="0.5585" rx="0.2792" fill="#fff"/></svg>