<svg xmlns="http://www.w3.org/2000/svg" width="16" height="17.1639" viewBox="0 0 16 17.1639"><title>Iconatron</title><rect x="6.1236" y="-1.747" width="0.72" height="3.2014" rx="0.36" transform="translate(3.2462 6.6225) rotate(-58.7613)" fill="#333"/><rect x="6.5486" y="-0.0116" width="0.72" height="3.2014" rx="0.36" transform="translate(1.8258 -2.203) rotate(31.2392)" fill="#333"/><path d="M8.6394.04Q8.65.6411,8.66,1.2465a6.7986,6.7986,0,1,1-1.5008.02Q7.1522.6608,7.1449.06A8.0007,8.0007,0,1,0,8.6394.04Z" transform="translate(0 1.1494)" fill="#333"/><path d="M8,3.4177a16.578,16.578,0,0,1-3.0606-.2849,14.8609,14.8609,0,0,1,.8289,4.68,14.87,14.87,0,0,1-.8289,5.1087h6.1212a15.9929,15.9929,0,0,1,0-9.7888A16.578,16.578,0,0,1,8,3.4177Z" transform="translate(0 1.1494)" fill="#333"/><rect x="4.9603" y="7.0075" width="6.0793" height="3.0796" fill="#b3b3b3"/><circle cx="8" cy="8.5228" r="1.2876" fill="#333"/><circle cx="8" cy="8.5228" r="1.0079" fill="#ed1c24"/><rect x="4.2462" y="6.449" width="7.5076" height="0.5585" rx="0.2792" fill="#333"/><rect x="4.2462" y="10.0382" width="7.5076" height="0.5585" rx="0.2792" fill="#333"/></svg>