<svg xmlns="http://www.w3.org/2000/svg" width="16" height="14.8625" viewBox="0 0 16 14.8625"><title>MailOpen</title><path d="M15.43,6a.7457.7457,0,0,0-.26-.04h-.72l.34.24a.665.665,0,0,1,.34.09.7628.7628,0,0,1,.32.27.8794.8794,0,0,1,.06.1.7786.7786,0,0,1,.09.37v7.66a.8392.8392,0,0,1-.13.44.8883.8883,0,0,1-.7.39H1.23a.7512.7512,0,0,1-.26-.05.7521.7521,0,0,1-.44-.34.8392.8392,0,0,1-.13-.44V7.03a.7306.7306,0,0,1,.06-.3.5559.5559,0,0,1,.09-.17A.8158.8158,0,0,1,.8,6.32a.8558.8558,0,0,1,.42-.12h.01l.34-.24H.83A.69.69,0,0,0,.58,6,.8284.8284,0,0,0,0,6.79v8.14a.828.828,0,0,0,.83.83H15.17a.828.828,0,0,0,.83-.83V6.79A.8322.8322,0,0,0,15.43,6Z" transform="translate(0 -0.8975)"/><path d="M15.6,6.46v.01a.2364.2364,0,0,1-.08.19h-.01L9.48,10.92l-.46.32-.79.56a.2781.2781,0,0,1-.38,0,.2926.2926,0,0,1-.08-.19.2732.2732,0,0,1,.08-.19l.19-.13.52-.37.46-.33,6-4.23.11-.07.01-.01a.2781.2781,0,0,1,.38,0A.23.23,0,0,1,15.6,6.46Z" transform="translate(0 -0.8975)"/><path d="M8.3,11.61a.26.26,0,0,1-.45.19l-.76-.52-.46-.32L.46,6.73l-.1-.07a.2732.2732,0,0,1-.08-.19.2452.2452,0,0,1,.06-.16V6.3l.02-.02a.2781.2781,0,0,1,.38,0l.06.04.12.09,6.17,4.23.47.32.48.33.19.13A.264.264,0,0,1,8.3,11.61Z" transform="translate(0 -0.8975)"/><path d="M15.6,7.03v7.66a.8392.8392,0,0,1-.13.44L9.48,10.92l6.03-4.26A.7786.7786,0,0,1,15.6,7.03Z" transform="translate(0 -0.8975)" fill="none"/><path d="M15.66,15.4a.2732.2732,0,0,1-.08.19.26.26,0,0,1-.38,0l-.17-.12L9.02,11.24l-.46-.32.46-.33.46.33,5.99,4.21.11.08A.2926.2926,0,0,1,15.66,15.4Z" transform="translate(0 -0.8975)"/><path d="M6.63,10.96.53,15.13a.8392.8392,0,0,1-.13-.44V7.03a.7306.7306,0,0,1,.06-.3Z" transform="translate(0 -0.8975)" fill="none"/><path d="M15.03,15.47a.7512.7512,0,0,1-.26.05H1.23a.7512.7512,0,0,1-.26-.05l6.12-4.19.76.52a.2781.2781,0,0,0,.38,0l.79-.56Z" transform="translate(0 -0.8975)" fill="none"/><path d="M7.56,10.96l-.47.32L.97,15.47l-.17.12a.26.26,0,0,1-.38,0,.2732.2732,0,0,1-.08-.19.2926.2926,0,0,1,.08-.19l.11-.08,6.1-4.17.46-.32Z" transform="translate(0 -0.8975)"/><path d="M15.66,6.3a.2271.2271,0,0,1-.06.16v.01l-.02.02a.3293.3293,0,0,1-.13.07.2348.2348,0,0,1-.25-.07l-.18-.13-.23-.16-.34-.24L8.1,1.49l-.19-.13a.2926.2926,0,0,1-.08-.19A.2732.2732,0,0,1,7.91.98a.26.26,0,0,1,.38,0L15.43,6l.15.11A.2926.2926,0,0,1,15.66,6.3Z" transform="translate(0 -0.8975)"/><polygon points="15.02 5.462 9.02 9.692 8.56 10.022 8.04 10.392 7.56 10.062 7.09 9.743 0.92 5.512 1.22 5.303 1.23 5.303 1.57 5.062 8.1 0.592 14.45 5.062 14.79 5.303 15.02 5.462" fill="none"/><path d="M8.36,1.17a.2805.2805,0,0,1-.07.19l-.19.13L1.57,5.96l-.34.24H1.22l-.3.21L.8,6.49a.2348.2348,0,0,1-.25.07.3293.3293,0,0,1-.13-.07.25.25,0,0,1-.08-.18V6.3a.2926.2926,0,0,1,.08-.19L.58,6,7.91.98a.26.26,0,0,1,.38,0A.264.264,0,0,1,8.36,1.17Z" transform="translate(0 -0.8975)"/></svg>