<svg xmlns="http://www.w3.org/2000/svg" width="16" height="9.8" viewBox="0 0 16 9.8"><title>Mail</title><path d="M15.17,3.96H.83A.828.828,0,0,0,0,4.79v8.14a.828.828,0,0,0,.83.83H15.17a.828.828,0,0,0,.83-.83V4.79A.828.828,0,0,0,15.17,3.96Zm-.4,9.56H1.23a.7512.7512,0,0,1-.26-.05.7521.7521,0,0,1-.44-.34.8392.8392,0,0,1-.13-.44V5.03a.7306.7306,0,0,1,.06-.3A.8512.8512,0,0,1,.8,4.32a.7963.7963,0,0,1,.43-.12H14.77a.74.74,0,0,1,.36.09.802.802,0,0,1,.38.37.7786.7786,0,0,1,.09.37v7.66a.8392.8392,0,0,1-.13.44.8883.8883,0,0,1-.7.39Z" transform="translate(0 -3.96)"/><path d="M6.63,8.96.53,13.13a.8392.8392,0,0,1-.13-.44V5.03a.7306.7306,0,0,1,.06-.3Z" transform="translate(0 -3.96)" fill="none"/><path d="M15.03,13.47a.7512.7512,0,0,1-.26.05H1.23a.7512.7512,0,0,1-.26-.05L7.09,9.28l.76.52a.2781.2781,0,0,0,.38,0l.79-.56Z" transform="translate(0 -3.96)" fill="none"/><path d="M15.6,5.03v7.66a.8392.8392,0,0,1-.13.44L9.48,8.92l6.03-4.26A.7786.7786,0,0,1,15.6,5.03Z" transform="translate(0 -3.96)" fill="none"/><path d="M15.13,4.29,9.02,8.59l-.46.33-.52.37-.48-.33-.47-.32L.8,4.32a.7963.7963,0,0,1,.43-.12H14.77A.74.74,0,0,1,15.13,4.29Z" transform="translate(0 -3.96)" fill="none"/><path d="M15.6,4.47a.2364.2364,0,0,1-.08.19h-.01L9.48,8.92l-.46.32-.79.56a.2781.2781,0,0,1-.38,0,.2926.2926,0,0,1-.08-.19.2732.2732,0,0,1,.08-.19l.19-.13.52-.37.46-.33,6.11-4.3.01-.01a.2781.2781,0,0,1,.38,0A.25.25,0,0,1,15.6,4.47Z" transform="translate(0 -3.96)"/><path d="M8.3,9.61a.26.26,0,0,1-.45.19l-.76-.52-.46-.32L.46,4.73l-.1-.07a.2732.2732,0,0,1-.08-.19.2926.2926,0,0,1,.08-.19.2781.2781,0,0,1,.38,0l.06.04L7.09,8.64l.47.32.48.33.19.13A.264.264,0,0,1,8.3,9.61Z" transform="translate(0 -3.96)"/><path d="M15.66,13.4a.2732.2732,0,0,1-.08.19.26.26,0,0,1-.38,0l-.17-.12L9.02,9.24l-.46-.32.46-.33.46.33,5.99,4.21.11.08A.2926.2926,0,0,1,15.66,13.4Z" transform="translate(0 -3.96)"/><path d="M7.56,8.96l-.47.32L.97,13.47l-.17.12a.26.26,0,0,1-.38,0,.2732.2732,0,0,1-.08-.19.2926.2926,0,0,1,.08-.19l.11-.08,6.1-4.17.46-.32Z" transform="translate(0 -3.96)"/></svg>