<svg xmlns="http://www.w3.org/2000/svg" width="15" height="16.0996" viewBox="0 0 15 16.0996"><title>Restart</title><polygon points="8.177 12.871 8.177 12.871 8.176 12.877 8.177 12.871"/><path d="M8.2826,13.1938c-.0105.0049-.0186.0151-.0293.02C8.2643,13.2086,8.2719,13.199,8.2826,13.1938Z" transform="translate(-0.4988 0.293)"/><path d="M7.9988,13.265l.0012,0a.6908.6908,0,0,0,.2533-.052A.6865.6865,0,0,1,7.9988,13.265Z" transform="translate(-0.4988 0.293)"/><rect x="6.2397" y="-0.8448" width="0.675" height="3.0014" rx="0.315" transform="translate(2.1066 6.2323) rotate(-58.7613)"/><rect x="6.6381" y="0.7821" width="0.675" height="3.0013" rx="0.315" transform="translate(1.6964 -2.9936) rotate(31.2391)"/><path d="M8.5983.83q.01.5637.02,1.1312a6.3734,6.3734,0,1,1-1.407.0184q-.007-.5674-.0138-1.1307A7.5,7.5,0,1,0,8.5983.83Z" transform="translate(-0.4988 0.293)"/></svg>