<svg xmlns="http://www.w3.org/2000/svg" width="13.2649" height="16" viewBox="0 0 13.2649 15.1622"><title>TrashFill</title><rect y="0.6952" width="13.2649" height="1.8021" rx="0.6092"/><rect x="4.2973" width="4.6703" height="1.0703" rx="0.5351"/><path d="M2.9406,2.7513V14.7189A1.2848,1.2848,0,0,0,4.2216,16h7.5568a1.2848,1.2848,0,0,0,1.281-1.2811V2.7513ZM6.1973,13.173a.5325.5325,0,0,1-1.0649,0V5.5784a.5325.5325,0,0,1,1.0649,0Zm2.3351,0a.5324.5324,0,0,1-1.0648,0V5.5784a.5324.5324,0,0,1,1.0648,0Zm2.2108,0a.5324.5324,0,0,1-1.0648,0V5.5784a.5324.5324,0,0,1,1.0648,0Z" transform="translate(-1.3676 -0.8378)"/></svg>