<svg xmlns="http://www.w3.org/2000/svg" width="16" height="13.74" viewBox="0 0 16 13.74"><title>TruckFill</title><path d="M0,1.5V12.4H1.17a2.3762,2.3762,0,0,1,.31-.54H.57V2.05H10.88v9.81H4.73a2.0539,2.0539,0,0,1,.31.54h5.65c.01-.01.01-.01.01-.02a2.3762,2.3762,0,0,1,.31-.54,2.1433,2.1433,0,0,1,.44-.41V1.5Z" transform="translate(0 -1.5)"/><path d="M5.04,12.4H4.58a1.615,1.615,0,0,1,.19.76,1.66,1.66,0,0,1-3.32,0,1.615,1.615,0,0,1,.19-.76H1.17a2.0882,2.0882,0,0,0,1.94,2.84,2.07,2.07,0,0,0,2.07-2.08A2.0958,2.0958,0,0,0,5.04,12.4Z" transform="translate(0 -1.5)" fill="none"/><path d="M5.04,12.4H4.58a1.5423,1.5423,0,0,0-.44-.54,1.6535,1.6535,0,0,0-2.06,0,1.5423,1.5423,0,0,0-.44.54H1.17a2.3762,2.3762,0,0,1,.31-.54,2.0833,2.0833,0,0,1,1.63-.78A2.0677,2.0677,0,0,1,5.04,12.4Z" transform="translate(0 -1.5)" fill="none"/><path d="M10.88,2.05v9.81H4.73a2.0486,2.0486,0,0,0-1.62-.78,2.0833,2.0833,0,0,0-1.63.78H.57V2.05Z" transform="translate(0 -1.5)"/><path d="M4.77,13.16a1.66,1.66,0,0,1-3.32,0,1.615,1.615,0,0,1,.19-.76,1.5423,1.5423,0,0,1,.44-.54,1.6535,1.6535,0,0,1,2.06,0,1.5423,1.5423,0,0,1,.44.54A1.615,1.615,0,0,1,4.77,13.16Z" transform="translate(0 -1.5)"/><path d="M14.71,13.14a2.075,2.075,0,1,1-4.15,0,2.21,2.21,0,0,1,.13-.74h.47a1.66,1.66,0,1,0,2.96,0h.46A2.21,2.21,0,0,1,14.71,13.14Z" transform="translate(0 -1.5)" fill="none"/><path d="M11.45,11.43v.55a1.6,1.6,0,0,0-.28.4c0,.01-.01.01-.01.02h-.47c.01-.01.01-.01.01-.02a2.3762,2.3762,0,0,1,.31-.54A2.1433,2.1433,0,0,1,11.45,11.43Z" transform="translate(0 -1.5)" fill="none"/><path d="M12.09,11.13v.44a1.3687,1.3687,0,0,0-.32.16.9062.9062,0,0,0-.16.11,1.07,1.07,0,0,0-.16.14v-.55a2.016,2.016,0,0,1,.32-.18A1.7549,1.7549,0,0,1,12.09,11.13Z" transform="translate(0 -1.5)" fill="none"/><path d="M14.35,11.97h-.53a1.7383,1.7383,0,0,0-.15-.13,1.6129,1.6129,0,0,0-1.03-.36,1.67,1.67,0,0,0-.55.09v-.44a2.4348,2.4348,0,0,1,.55-.07,2.0486,2.0486,0,0,1,1.62.78A1.0144,1.0144,0,0,1,14.35,11.97Z" transform="translate(0 -1.5)" fill="none"/><path d="M14.3,13.14a1.66,1.66,0,1,1-3.14-.74c0-.01.01-.01.01-.02a1.6,1.6,0,0,1,.28-.4,1.07,1.07,0,0,1,.16-.14.9062.9062,0,0,1,.16-.11,1.3687,1.3687,0,0,1,.32-.16,1.67,1.67,0,0,1,.55-.09,1.6129,1.6129,0,0,1,1.03.36,1.7383,1.7383,0,0,1,.15.13,1.4567,1.4567,0,0,1,.29.41c0,.01.01.01.01.02A1.65,1.65,0,0,1,14.3,13.14Z" transform="translate(0 -1.5)"/><path d="M14.1,6.61H11.77v4.64a1.7549,1.7549,0,0,1,.32-.12V7.04h1.98l1.61,1.78v3.15H14.35a2.0174,2.0174,0,0,1,.22.41c0,.01,0,.01.01.02H16V8.7Z" transform="translate(0 -1.5)"/><path d="M14.58,12.4h-.46c0-.01-.01-.01-.01-.02a1.4567,1.4567,0,0,0-.29-.41h.53a2.0174,2.0174,0,0,1,.22.41C14.57,12.39,14.57,12.39,14.58,12.4Z" transform="translate(0 -1.5)" fill="none"/><path d="M15.68,8.82v3.15H14.35a1.0144,1.0144,0,0,0-.09-.13,2.0486,2.0486,0,0,0-1.62-.78,2.4348,2.4348,0,0,0-.55.07V7.04h1.98Z" transform="translate(0 -1.5)"/></svg>