<svg xmlns="http://www.w3.org/2000/svg" width="16" height="16" viewBox="0 0 15.4077 13.6513"><title>WarningTriangle</title><rect x="7.1061" y="2.4274" width="1.3792" height="7.4517" rx="0.6896"/><path d="M9,2.4979a1.0571,1.0571,0,0,0-2,0L.5309,13.7027c-.55.9527-.1,1.7321,1,1.7321H14.4691c1.1,0,1.55-.7794,1-1.7321ZM7,3.3966a1.057,1.057,0,0,1,2,0l5.6222,9.7379c.55.9527.1,1.7321-1,1.7321H2.3778c-1.1,0-1.55-.7794-1-1.7321Z" transform="translate(-0.2962 -1.7834)"/><circle cx="7.7957" cy="11.1294" r="0.6896"/></svg>