<svg xmlns="http://www.w3.org/2000/svg" width="1em" height="1em" viewBox="0 0 15.0973 16"><title>CartCheck</title><path d="M2.4919,2.7189l1.474,9.8432h10.56L16,2.7189Zm11.242,9.105H4.7579L3.505,3.4571H14.9869Z" transform="translate(-0.9027)"/><rect x="1.5892" y="0.6757" width="0.9081" height="2.0433"/><rect x="1.6973" y="-0.7946" width="0.9081" height="2.4973" transform="translate(0.7946 2.6054) rotate(-90)"/><path d="M5.5,12.5621a1.719,1.719,0,1,0,1.7189,1.719A1.7189,1.7189,0,0,0,5.5,12.5621Zm0,3.0082a1.2892,1.2892,0,1,1,1.2892-1.2892A1.2893,1.2893,0,0,1,5.5,15.57Z" transform="translate(-0.9027)"/><path d="M13.0324,12.5621a1.719,1.719,0,1,0,1.719,1.719A1.7189,1.7189,0,0,0,13.0324,12.5621Zm0,3.0082a1.2892,1.2892,0,1,1,1.2892-1.2892A1.2893,1.2893,0,0,1,13.0324,15.57Z" transform="translate(-0.9027)"/><rect x="9.9568" y="4.6834" width="0.9784" height="5.8054" transform="translate(11.5655 20.3367) rotate(-135)"/><rect x="7.4533" y="7.2699" width="0.9784" height="2.9027" transform="translate(-4.7432 8.1706) rotate(-45)"/></svg>