<svg xmlns="http://www.w3.org/2000/svg" width="1em" height="1em" viewBox="0 0 16 12.327"><title>Chat2</title><circle cx="4" cy="6.1635" r="0.9365"/><circle cx="8" cy="6.1635" r="0.9365"/><circle cx="12" cy="6.1635" r="0.9365"/><path d="M8,0C3.5817,0,0,2.4757,0,5.53A4.6015,4.6015,0,0,0,1.7726,9.0013c.077.0658.1647.1251.2459.1885l-.0363-.0166a11.6825,11.6825,0,0,1-.1389,3.1538A13.7718,13.7718,0,0,0,5.51,10.7861l-.0251-.0114A11.2677,11.2677,0,0,0,8,11.0594c4.4183,0,8-2.4757,8-5.53S12.4183,0,8,0ZM8,10.57a10.1392,10.1392,0,0,1-2.2636-.2563l.0226.01a12.399,12.399,0,0,1-3.3,1.3867A10.5083,10.5083,0,0,0,2.584,8.8722l.0326.0149c-.073-.057-.1519-.11-.2212-.17A4.1411,4.1411,0,0,1,.8,5.5931C.8,2.8445,4.0236.6163,8,.6163s7.2,2.2282,7.2,4.9768S11.9764,10.57,8,10.57Z"/></svg>