<?xml version="1.0" encoding="UTF-8" standalone="no"?>
<svg
   xmlns:dc="http://purl.org/dc/elements/1.1/"
   xmlns:cc="http://creativecommons.org/ns#"
   xmlns:rdf="http://www.w3.org/1999/02/22-rdf-syntax-ns#"
   xmlns:svg="http://www.w3.org/2000/svg"
   xmlns="http://www.w3.org/2000/svg"
   xmlns:sodipodi="http://sodipodi.sourceforge.net/DTD/sodipodi-0.dtd"
   xmlns:inkscape="http://www.inkscape.org/namespaces/inkscape"
   stroke-miterlimit="10"
   font-weight="normal"
   font-style="normal"
   font-size="12"
   version="1.1"
   id="svg9"
   sodipodi:docname="eye.svg"
   width="203.625"
   height="214.17191"
   style="font-style:normal;font-weight:normal;font-size:12px;font-family:Dialog;color-interpolation:auto;fill:#000000;fill-opacity:1;stroke:#000000;stroke-width:1;stroke-linecap:square;stroke-linejoin:miter;stroke-miterlimit:10;stroke-dasharray:none;stroke-dashoffset:0;stroke-opacity:1;color-rendering:auto;image-rendering:auto;shape-rendering:auto;text-rendering:auto"
   inkscape:version="0.92.3 (2405546, 2018-03-11)">
  <metadata
     id="metadata13">
    <rdf:RDF>
      <cc:Work
         rdf:about="">
        <dc:format>image/svg+xml</dc:format>
        <dc:type
           rdf:resource="http://purl.org/dc/dcmitype/StillImage" />
        <dc:title></dc:title>
      </cc:Work>
    </rdf:RDF>
  </metadata>
  <sodipodi:namedview
     pagecolor="#ffffff"
     bordercolor="#666666"
     borderopacity="1"
     objecttolerance="10"
     gridtolerance="10"
     guidetolerance="10"
     inkscape:pageopacity="0"
     inkscape:pageshadow="2"
     inkscape:window-width="1107"
     inkscape:window-height="740"
     id="namedview11"
     showgrid="false"
     fit-margin-top="0"
     fit-margin-left="0"
     fit-margin-right="0"
     fit-margin-bottom="0"
     inkscape:snap-bbox="true"
     inkscape:bbox-paths="true"
     inkscape:bbox-nodes="true"
     inkscape:snap-bbox-edge-midpoints="true"
     inkscape:snap-bbox-midpoints="true"
     inkscape:zoom="1.668772"
     inkscape:cx="43.522288"
     inkscape:cy="84.67615"
     inkscape:window-x="149"
     inkscape:window-y="104"
     inkscape:window-maximized="0"
     inkscape:current-layer="svg9" />
  <!--Unicode Character 'GEAR' (U+2699)-->
  <defs
     id="genericDefs" />
  <path
     d="m 200.41249,110.40833 c -9.99042,18.04928 -23.91039,31.83602 -41.7599,41.36021 -17.05028,9.12455 -36.23184,13.68683 -57.54469,13.68683 -21.379445,0 -40.561013,-4.56228 -57.544703,-13.68683 C 25.713684,142.24435 11.727126,128.45761 1.6035222,110.40833 11.793765,92.292404 25.747028,78.472345 43.463311,68.948153 60.447001,59.8236 79.661864,55.261324 101.1079,55.261324 c 21.37944,0 40.561,4.562276 57.54469,13.686829 17.84951,9.524192 31.76948,23.344251 41.7599,41.460177 z m -18.88183,0 c -13.05417,-22.911317 -33.63441,-36.698081 -61.7407,-41.360291 31.09161,14.943839 34.92754,63.756431 0.4995,82.620621 27.90653,-4.72881 48.32026,-18.48225 61.2412,-41.26033 z M 82.026215,69.048039 C 53.986507,73.84343 33.472888,87.630194 20.485358,110.40833 33.406297,133.11982 53.786735,146.87327 81.62667,151.66866 50.805438,135.26794 49.94067,86.53319 82.026215,69.048039 Z"
     id="path3"
     inkscape:connector-curvature="0"
     style="stroke:none;stroke-width:0.71042836"
     sodipodi:nodetypes="ccscccscccccccccc" />
</svg>
